# xmcd CD database file
#
# Track frame offsets:
#	150
#	23760
#	54530
#	66699
#	91038
#	115135
#	130966
#	157173
#	194792
#	239921
#	259688
#	281789
#	300644
#
# Disc length: 4497 seconds
#
# Revision: 2
# Processed by: cddbd v1.5.2PL0 Copyright (c) Steve Scherf et al.
# Submitted via: CDex 1.51
#
DISCID=c9118f0d
DTITLE=Jenó Hubay - Works for Violon and Piano - Vol.8  (Ferenc Szecsódi, violin - István Kassai, piano)
DYEAR=2004
DGENRE=Classique
TTITLE0=The Waves of Lake Balaton  (Scène de la Csárda N°5, Op.33)
TTITLE1=Yellow maybeetle  (Scène de la Csárda N°6, Op.34)
TTITLE2=May song  (Op.37, N°1)
TTITLE3=From times of yore  (Op.37, N°2)
TTITLE4=In front of her portrait  (Op.38, N°1)
TTITLE5=Under her window  (Op.38, N°2)
TTITLE6=Song of nightingale  (Op.39)
TTITLE7=Kossuth Song  (Scène de la Csárda N°7, Op.41)
TTITLE8=It is said  (Scène de la Csárda N°8, Op.60)
TTITLE9=Trois morceaux  (Op.66)  N°1. Moment musical
TTITLE10=Trois morceaux  (Op.66)  N°2. Adieu
TTITLE11=Trois morceaux  (Op.66)  N°3. Vol d'hirondelles
TTITLE12=Walzer-Paraphrase  (Op.105)
EXTD=YEAR: 2004
EXTT0=
EXTT1=
EXTT2=
EXTT3=
EXTT4=
EXTT5=
EXTT6=
EXTT7=
EXTT8=
EXTT9=
EXTT10=
EXTT11=
EXTT12=
PLAYORDER=
